<svg class="svg-icon" style="width: 1em; height: 1em;vertical-align: middle;fill: currentColor;overflow: hidden;" viewBox="0 0 1024 1024" version="1.1" xmlns="http://www.w3.org/2000/svg"><path d="M256 796.444444h48.355556l-116.622223 199.111112h130.844445l116.622222-199.111112h147.911111l116.622222 199.111112h130.844445l-116.622222-199.111112H768c48.355556 0 85.333333-36.977778 85.333333-85.333333V142.222222c0-56.888889-31.288889-113.777778-341.333333-113.777778S170.666667 85.333333 170.666667 142.222222v568.888889c0 48.355556 36.977778 85.333333 85.333333 85.333333z m483.555556-56.888888c-31.288889 0-56.888889-25.6-56.888889-56.888889s25.6-56.888889 56.888889-56.888889 56.888889 25.6 56.888888 56.888889-25.6 56.888889-56.888888 56.888889zM426.666667 113.777778h170.666666c17.066667 0 28.444444 11.377778 28.444445 28.444444s-11.377778 28.444444-28.444445 28.444445h-170.666666c-17.066667 0-28.444444-11.377778-28.444445-28.444445s11.377778-28.444444 28.444445-28.444444z m-199.111111 227.555555c0-48.355556 36.977778-85.333333 85.333333-85.333333h398.222222c48.355556 0 85.333333 36.977778 85.333333 85.333333v113.777778c0 45.511111-36.977778 85.333333-85.333333 85.333333H312.888889c-48.355556 0-85.333333-39.822222-85.333333-85.333333v-113.777778z m56.888888 284.444445c31.288889 0 56.888889 25.6 56.888889 56.888889s-25.6 56.888889-56.888889 56.888889-56.888889-25.6-56.888888-56.888889 25.6-56.888889 56.888888-56.888889z" fill="" /></svg>